<?xml version="1.0" encoding="UTF-8" standalone="no"?><svg xmlns="http://www.w3.org/2000/svg" xmlns:xlink="http://www.w3.org/1999/xlink" contentScriptType="application/ecmascript" contentStyleType="text/css" height="361px" preserveAspectRatio="none" style="width:255px;height:361px;" version="1.1" viewBox="0 0 255 361" width="255px" zoomAndPan="magnify"><defs><filter height="300%" id="fzg3rlj2a7m2k" width="300%" x="-1" y="-1"><feGaussianBlur result="blurOut" stdDeviation="2.0"/><feColorMatrix in="blurOut" result="blurOut2" type="matrix" values="0 0 0 0 0 0 0 0 0 0 0 0 0 0 0 0 0 0 .4 0"/><feOffset dx="4.0" dy="4.0" in="blurOut2" result="blurOut3"/><feBlend in="SourceGraphic" in2="blurOut3" mode="normal"/></filter></defs><g><rect fill="#FEFECE" filter="url(#fzg3rlj2a7m2k)" height="49.25" style="stroke: #A80036; stroke-width: 1.5;" width="52" x="90" y="8"/><text fill="#000000" font-family="sans-serif" font-size="12" lengthAdjust="spacingAndGlyphs" textLength="38" x="97" y="21.1387">Grupo</text><line style="stroke: #A80036; stroke-width: 1.5;" x1="91" x2="141" y1="25.9688" y2="25.9688"/><text fill="#000000" font-family="sans-serif" font-size="10" lengthAdjust="spacingAndGlyphs" textLength="8" x="96" y="39.251">id</text><text fill="#000000" font-family="sans-serif" font-size="10" lengthAdjust="spacingAndGlyphs" textLength="38" x="96" y="50.8916">nombre</text><rect fill="#FEFECE" filter="url(#fzg3rlj2a7m2k)" height="37.6094" style="stroke: #A80036; stroke-width: 1.5;" width="62" x="85" y="117"/><text fill="#000000" font-family="sans-serif" font-size="12" lengthAdjust="spacingAndGlyphs" textLength="48" x="92" y="130.1387">Agenda</text><line style="stroke: #A80036; stroke-width: 1.5;" x1="86" x2="146" y1="134.9688" y2="134.9688"/><text fill="#000000" font-family="sans-serif" font-size="10" lengthAdjust="spacingAndGlyphs" textLength="8" x="91" y="148.251">id</text><rect fill="#FEFECE" filter="url(#fzg3rlj2a7m2k)" height="37.6094" style="stroke: #A80036; stroke-width: 1.5;" width="62" x="182" y="117"/><text fill="#000000" font-family="sans-serif" font-size="12" lengthAdjust="spacingAndGlyphs" textLength="48" x="189" y="130.1387">Historia</text><line style="stroke: #A80036; stroke-width: 1.5;" x1="183" x2="243" y1="134.9688" y2="134.9688"/><text fill="#000000" font-family="sans-serif" font-size="10" lengthAdjust="spacingAndGlyphs" textLength="8" x="188" y="148.251">id</text><rect fill="#FEFECE" filter="url(#fzg3rlj2a7m2k)" height="37.6094" style="stroke: #A80036; stroke-width: 1.5;" width="89" x="71.5" y="215"/><text fill="#000000" font-family="sans-serif" font-size="12" lengthAdjust="spacingAndGlyphs" textLength="75" x="78.5" y="228.1387">Conferencia</text><line style="stroke: #A80036; stroke-width: 1.5;" x1="72.5" x2="159.5" y1="232.9688" y2="232.9688"/><text fill="#000000" font-family="sans-serif" font-size="10" lengthAdjust="spacingAndGlyphs" textLength="8" x="77.5" y="246.251">id</text><rect fill="#FEFECE" filter="url(#fzg3rlj2a7m2k)" height="37.6094" style="stroke: #A80036; stroke-width: 1.5;" width="98" x="6" y="313"/><text fill="#000000" font-family="sans-serif" font-size="12" lengthAdjust="spacingAndGlyphs" textLength="84" x="13" y="326.1387">Conversacion</text><line style="stroke: #A80036; stroke-width: 1.5;" x1="7" x2="103" y1="330.9688" y2="330.9688"/><text fill="#000000" font-family="sans-serif" font-size="10" lengthAdjust="spacingAndGlyphs" textLength="8" x="12" y="344.251">id</text><rect fill="#FEFECE" filter="url(#fzg3rlj2a7m2k)" height="37.6094" style="stroke: #A80036; stroke-width: 1.5;" width="78" x="139" y="313"/><text fill="#000000" font-family="sans-serif" font-size="12" lengthAdjust="spacingAndGlyphs" textLength="64" x="146" y="326.1387">Grabacion</text><line style="stroke: #A80036; stroke-width: 1.5;" x1="140" x2="216" y1="330.9688" y2="330.9688"/><text fill="#000000" font-family="sans-serif" font-size="10" lengthAdjust="spacingAndGlyphs" textLength="8" x="145" y="344.251">id</text><!--link Grupo to Agenda--><path d="M116,57.04 C116,73.46 116,95.27 116,111.64 " fill="none" id="Grupo-Agenda" style="stroke: #A80036; stroke-width: 1.0;"/><polygon fill="#A80036" points="116,116.97,120,107.97,116,111.97,112,107.97,116,116.97" style="stroke: #A80036; stroke-width: 1.0;"/><!--link Agenda to Historia--><path d="M147.07,136 C156.94,136 166.81,136 176.68,136 " fill="none" id="Agenda-Historia" style="stroke: #A80036; stroke-width: 1.0;"/><polygon fill="#A80036" points="181.84,136,172.84,132,176.84,136,172.84,140,181.84,136" style="stroke: #A80036; stroke-width: 1.0;"/><!--link Agenda to Conferencia--><path d="M116,155.06 C116,170.51 116,192.86 116,209.67 " fill="none" id="Agenda-Conferencia" style="stroke: #A80036; stroke-width: 1.0;"/><polygon fill="#A80036" points="116,214.7,120,205.7,116,209.7,112,205.7,116,214.7" style="stroke: #A80036; stroke-width: 1.0;"/><!--link Conferencia to Conversacion--><path d="M104.53,253.06 C94.62,268.65 80.26,291.25 69.55,308.11 " fill="none" id="Conferencia-Conversacion" style="stroke: #A80036; stroke-width: 1.0;"/><polygon fill="#A80036" points="66.63,312.7,74.8318,307.2474,69.3107,308.4793,68.0787,302.9583,66.63,312.7" style="stroke: #A80036; stroke-width: 1.0;"/><!--link Conferencia to Grabacion--><path d="M127.66,253.06 C137.73,268.65 152.33,291.25 163.21,308.11 " fill="none" id="Conferencia-Grabacion" style="stroke: #A80036; stroke-width: 1.0;"/><polygon fill="#A80036" points="166.18,312.7,164.6545,302.97,163.4661,308.5006,157.9355,307.3122,166.18,312.7" style="stroke: #A80036; stroke-width: 1.0;"/><!--
@startuml
object Grupo
Grupo : id
Grupo : nombre
object Agenda
Agenda : id
object Historia
Historia : id
object Conferencia
Conferencia : id
object Conversacion
Conversacion : id
object Grabacion
Grabacion : id

Grupo -down-> Agenda
Agenda -right-> Historia
Agenda -down-> Conferencia
Conferencia -down-> Conversacion
Conferencia -down-> Grabacion
@enduml

PlantUML version 1.2019.06(Fri May 24 12:10:25 COT 2019)
(APACHE source distribution)
Java Runtime: OpenJDK Runtime Environment
JVM: OpenJDK 64-Bit Server VM
Java Version: 15.0.1+9
Operating System: Linux
OS Version: 5.8.0-7642-generic
Default Encoding: UTF-8
Language: en
Country: US
--></g></svg>